<svg width="1456" height="845" viewBox="0 0 1456 845" fill="none" xmlns="http://www.w3.org/2000/svg">
<g clip-path="url(#clip0_758_47)">
<rect x="484.798" y="949.558" width="692.458" height="695.373" transform="rotate(-45 484.798 949.558)" fill="#C4C4C4"/>
<rect x="484.798" y="949.558" width="692.458" height="695.373" transform="rotate(-45 484.798 949.558)" fill="url(#paint0_linear_758_47)"/>
<rect x="-498" y="950.471" width="695" height="695" transform="rotate(-45 -498 950.471)" fill="#C4C4C4"/>
<rect x="-498" y="950.471" width="695" height="695" transform="rotate(-45 -498 950.471)" fill="url(#paint1_linear_758_47)"/>
<rect x="-7.50342" y="458.967" width="693.676" height="695.018" transform="rotate(-45 -7.50342 458.967)" fill="#C4C4C4"/>
<rect x="-7.50342" y="458.967" width="693.676" height="695.018" transform="rotate(-45 -7.50342 458.967)" fill="url(#paint2_linear_758_47)"/>
<rect x="-500" y="-31.5293" width="695.044" height="695.045" transform="rotate(-45 -500 -31.5293)" fill="url(#paint3_linear_758_47)"/>
<rect x="483" y="-31.5293" width="695" height="695.01" transform="rotate(-45 483 -31.5293)" fill="#C4C4C4"/>
<rect x="483" y="-31.5293" width="695" height="695.01" transform="rotate(-45 483 -31.5293)" fill="url(#paint4_linear_758_47)"/>
<rect x="974.443" y="459.92" width="695.734" height="695.054" transform="rotate(-45 974.443 459.92)" fill="#C4C4C4"/>
<rect x="974.443" y="459.92" width="695.734" height="695.054" transform="rotate(-45 974.443 459.92)" fill="url(#paint5_linear_758_47)"/>
<rect x="1120.31" y="604.777" width="694.997" height="487.997" transform="rotate(-45 1120.31 604.777)" fill="#C4C4C4"/>
<rect x="1120.31" y="604.777" width="694.997" height="487.997" transform="rotate(-45 1120.31 604.777)" fill="url(#paint6_linear_758_47)"/>
</g>
<defs>
<linearGradient id="paint0_linear_758_47" x1="484.403" y1="1644.71" x2="1179.86" y2="952.168" gradientUnits="userSpaceOnUse">
<stop stop-color="#2B2E42"/>
<stop offset="1" stop-color="#282C3F"/>
</linearGradient>
<linearGradient id="paint1_linear_758_47" x1="-491.325" y1="956.524" x2="197.397" y2="1645.25" gradientUnits="userSpaceOnUse">
<stop stop-color="#53274A"/>
<stop offset="1" stop-color="#4F2747"/>
</linearGradient>
<linearGradient id="paint2_linear_758_47" x1="-0.841625" y1="465.021" x2="687.897" y2="1152.43" gradientUnits="userSpaceOnUse">
<stop stop-color="#302946"/>
<stop offset="1" stop-color="#2B2941"/>
</linearGradient>
<linearGradient id="paint3_linear_758_47" x1="-493.325" y1="-25.4755" x2="195.441" y2="663.291" gradientUnits="userSpaceOnUse">
<stop stop-color="#282736"/>
<stop offset="1" stop-color="#29283A"/>
</linearGradient>
<linearGradient id="paint4_linear_758_47" x1="485.432" y1="296.262" x2="1176.98" y2="477.987" gradientUnits="userSpaceOnUse">
<stop stop-color="#502959"/>
<stop offset="1" stop-color="#2A2A59"/>
</linearGradient>
<linearGradient id="paint5_linear_758_47" x1="981.125" y1="465.974" x2="1669.9" y2="1155.42" gradientUnits="userSpaceOnUse">
<stop stop-color="#305859"/>
<stop offset="1" stop-color="#346566"/>
</linearGradient>
<linearGradient id="paint6_linear_758_47" x1="1126.98" y1="609.028" x2="1581.84" y2="1256.82" gradientUnits="userSpaceOnUse">
<stop stop-color="#405859"/>
<stop offset="1" stop-color="#346566"/>
</linearGradient>
<clipPath id="clip0_758_47">
<rect width="1456" height="845" fill="white"/>
</clipPath>
</defs>
</svg>
